<svg aria-hidden="true" style="position: absolute; width: 0; height: 0; overflow: hidden;" version="1.1" xmlns="http://www.w3.org/2000/svg" xmlns:xlink="http://www.w3.org/1999/xlink">
<defs>
<symbol id="icon-seach" viewBox="0 0 32 32">
<path d="M31.565 27.671l-6.232-6.232c-0.281-0.281-0.663-0.438-1.063-0.438h-1.019c1.725-2.206 2.75-4.982 2.75-8.001 0-7.182-5.819-13.001-13.001-13.001s-13.001 5.819-13.001 13.001c0 7.182 5.819 13.001 13.001 13.001 3.019 0 5.794-1.025 8.001-2.75v1.019c0 0.4 0.156 0.781 0.438 1.063l6.232 6.232c0.588 0.587 1.538 0.587 2.119 0l1.769-1.769c0.587-0.588 0.587-1.538 0.006-2.125zM13.001 21.002c-4.419 0-8.001-3.575-8.001-8.001 0-4.419 3.575-8.001 8.001-8.001 4.419 0 8.001 3.575 8.001 8.001 0 4.419-3.575 8.001-8.001 8.001z"></path>
</symbol>
<symbol id="icon-down" viewBox="0 0 51 32">
<path d="M23.61 30.247l-22.786-22.786c-1.099-1.099-1.099-2.881 0-3.979l2.658-2.658c1.097-1.097 2.875-1.099 3.975-0.005l18.143 18.058 18.143-18.058c1.1-1.095 2.878-1.092 3.975 0.005l2.658 2.658c1.099 1.099 1.099 2.881 0 3.979l-22.786 22.786c-1.099 1.099-2.881 1.099-3.98 0z"></path>
</symbol>
</defs>
</svg>
